PathFileType	4	(X/Y/Z)	C:/Users/beibeiliu/ov580/test_trc/User2\sequence.5_training_dense_left.trc
DataRate	CameraRate	NumFrames	NumMarkers	Units	OrigDataRate	OrigDataStartFrame	OrigNumFrames
120	120	18	19	mm	120	157	417
Frame#	Time	ThumbCMC			ThumbMCP			ThumbIP			ThumbTip			IndexMCP			IndexPIP			IndexTip			MiddleMCP			MiddlePIP			MiddleTip			RingMCP			RingPIP			RingTip			PinkyMCP			PinkyPIP			PinkyTip			BackHand1			BackHand2			BackHand3	
		X0	Y0	Z0	X1	Y1	Z1	X2	Y2	Z2	X3	Y3	Z3	X4	Y4	Z4	X5	Y5	Z5	X6	Y6	Z6	X7	Y7	Z7	X8	Y8	Z8	X9	Y9	Z9	X10	Y10	Z10	X11	Y11	Z11	X12	Y12	Z12	X13	Y13	Z13	X14	Y14	Z14	X15	Y15	Z15	X16	Y16	Z16	X17	Y17	Z17	X18	Y18	Z18	
156	1.3	-105.842	0.335616	89.112	-102.756	-30.0037	71.0109	-107.482	-59.2593	46.6061	-124.259	-77.0074	33.5471	-132.847	-3.11225	10.4028	-130.697	-17.8665	-12.4417	-130.49	-37.7201	-32.6036	-160.46	-20.2326	13.9683	-153.66	-55.9595	13.6535	-140.357	-69.9208	50.1007	-177.847	-30.6547	26.3603	-164.022	-60.262	29.1829	-147.979	-65.7985	61.2333	-188.129	-30.2559	47.0271	-175.521	-60.7338	46.9681	-157.449	-65.6763	74.4501	-174.261	16.6205	72.4836	-166.949	30.8421	104.223	-140.417	29.35	78.643	
157	1.30833	-100.228	1.38719	91.4413	-97.5415	-31.3869	75.3697	-104.395	-61.4798	50.1337	-124.538	-76.5905	38.0184	-124.602	-8.27408	11.8478	-124.972	-27.6454	-7.73982	-124.698	-50.919	-28.0219	-156.722	-20.5588	16.7977	-147.872	-59.4531	14.6861	-136.122	-70.3106	54.1628	-175.042	-32.319	28.2446	-162.65	-61.9334	30.1132	-145.834	-66.6853	63.1698	-187.343	-34.1659	45.1842	-172.984	-63.2369	47.0677	-152.614	-62.2282	72.4053	-173.98	15.1881	70.5913	-167.523	30.8023	102.609	-132.643	30.1009	78.9832	
158	1.31667	-101.803	0.195824	89.1084	-95.2016	-33.1494	70.8961	-103.393	-58.99	52.576	-119.555	-77.0933	38.2205	-124.236	-8.35718	9.49034	-122.174	-27.0858	-11.3105	-123.443	-47.6265	-29.5582	-150.921	-23.567	11.5983	-146.197	-57.3084	11.7561	-135.413	-70.5177	49.2414	-171.213	-34.3032	23.7747	-159.292	-62.3995	27.7925	-145.266	-68.8947	58.9961	-185.709	-35.0709	42.9765	-173.878	-64.3534	46.9866	-152.592	-62.7229	74.5538	-169.287	15.7433	72.6377	-166.56	31.3072	102.042	-131.828	30.507	76.6632	
159	1.325	-98.5493	0.79265	91.8058	-93.5745	-32.5451	68.8923	-102.09	-58.776	46.0922	-119.608	-74.9571	33.1422	-117.542	-1.1514	11.9368	-117.073	-17.9741	-17.1456	-120.414	-34.2999	-34.5022	-150.525	-17.9729	13.4148	-145.687	-56.6719	12.1489	-131.675	-68.1598	47.8705	-169.211	-29.5413	24.4817	-156.152	-59.8486	24.7503	-141.207	-65.6871	56.943	-181.433	-31.2285	40.8134	-167.941	-60.5198	43.5408	-149.152	-62.5785	68.0385	-168.56	18.667	71.3946	-164.937	32.1175	99.991	-132.676	30.2154	76.7398	
160	1.33333	-98.5608	2.09583	93.1954	-92.2942	-29.1431	70.5964	-97.8826	-56.9971	45.8467	-118.204	-72.584	28.1145	-118.435	5.90721	9.54025	-114.018	-3.56065	-15.6251	-114.245	-16.4686	-43.112	-145.026	-15.7081	9.7445	-140.755	-51.95	8.9938	-129.865	-65.7509	47.2404	-164.471	-23.3875	23.1462	-156.894	-59.6814	24.9847	-141.593	-65.2994	53.2258	-181.074	-28.3706	41.2307	-165.532	-61.4726	44.3383	-145.392	-56.6758	70.16	-162.644	20.2317	66.4963	-158.287	32.3682	100.583	-126.811	33.8358	79.1045	
161	1.34167	-95.9143	3.49089	93.2682	-86.7826	-29.1466	70.5634	-95.7188	-53.6422	44.9409	-112.135	-68.9352	26.9847	-109.899	11.679	12.9744	-106.596	6.03917	-12.9067	-109.226	-2.79655	-43.3779	-141.583	-9.50264	12.5018	-138.91	-47.1699	6.34571	-128.63	-64.5094	41.5388	-161.777	-21.9675	19.5983	-150.887	-52.0142	19.7541	-137.984	-62.7798	53.5932	-176.934	-23.7907	39.9543	-162.651	-54.2815	38.6661	-147.733	-56.6338	68.0332	-160.945	21.1901	67.1238	-160.789	32.4341	99.4886	-127.82	33.6457	78.8207	
162	1.35	-94.119	4.84375	93.0094	-84.7185	-26.3118	69.9255	-88.2964	-51.4576	46.5217	-105.268	-64.4621	28.7149	-103.776	16.2434	13.6963	-102.272	10.7294	-17.0026	-99.8193	6.33285	-43.671	-135.346	-7.83809	7.93794	-128.214	-45.7272	3.95099	-120.814	-62.2058	37.8621	-152.87	-20.6838	16.4577	-147.534	-49.8413	18.0529	-134.381	-61.6479	48.6376	-172.273	-22.7446	33.7818	-160.367	-54.7248	36.5662	-142.816	-53.5155	67.9216	-157.741	23.5625	68.1964	-156.796	34.255	98.0804	-119.744	36.2094	81.5793	
163	1.35833	-89.282	4.71878	92.9563	-81.2398	-24.1125	74.0594	-85.2747	-50.5002	43.202	-98.8109	-64.7684	28.0747	-97.4744	15.5369	13.6173	-92.5675	11.0892	-15.3049	-88.3122	6.66497	-39.4237	-126.717	-6.2016	7.28393	-125.418	-41.2812	1.73678	-115.596	-60.7218	34.7863	-148.672	-16.4911	17.0973	-140.318	-47.0603	13.7161	-125.913	-59.177	47.0639	-164.371	-19.9449	32.6539	-153.018	-51.3496	31.3011	-140.795	-54.1855	59.6934	-154.488	25.8819	66.7165	-151.142	35.7879	99.0201	-116.223	35.9129	82.842	
164	1.36667	-88.0057	4.46747	93.4688	-78.539	-25.1254	75.4856	-83.6361	-48.9468	47.3229	-93.3114	-65.1413	28.0534	-87.6727	13.4247	12.6152	-79.5388	6.91928	-12.595	-76.1283	-2.09186	-36.2482	-118.336	-4.66959	8.18818	-117.256	-43.1801	2.35478	-112.923	-60.9321	38.7541	-141.379	-16.7796	14.673	-137.025	-48.9343	13.3309	-123.137	-59.1557	43.8124	-161.372	-18.754	30.9899	-145.592	-50.2795	28.5731	-132.056	-53.4663	58.7159	-149.579	24.2037	65.2878	-152.174	36.4226	98.2268	-113.222	36.3788	78.1138	
165	1.375	-83.6504	4.07019	93.7445	-77.7042	-25.3268	75.7508	-80.3643	-51.2995	47.8291	-92.9481	-65.8003	29.8779	-83.3568	9.3214	16.2005	-76.723	-4.39446	-12.9071	-71.9597	-17.8522	-35.163	-116.659	-8.67372	7.52799	-112.38	-47.2928	4.29141	-106.443	-62.5687	38.9267	-133.843	-17.973	13.3656	-129.164	-51.0292	14.3465	-119.659	-60.1072	45.4236	-153.681	-19.5157	27.4464	-147.587	-51.6831	26.7215	-132.671	-55.3306	55.0772	-147.271	26.2234	62.8359	-146.221	38.0094	92.4248	-113.19	36.7675	77.6872	
166	1.38333	-80.3177	2.05299	94.3159	-73.1423	-29.2211	76.5585	-75.0535	-55.4645	48.7944	-93.9169	-66.7266	32.5725	-81.9299	1.26186	16.186	-74.5247	-17.0276	-10.2583	-66.6557	-37.3884	-30.9956	-112.715	-12.5551	5.08237	-110.17	-49.7566	4.78453	-107.572	-65.032	41.5485	-137.714	-19.121	13.7991	-128.759	-50.7312	13.502	-123.16	-62.0358	46.3358	-154.878	-23.116	26.6992	-141.312	-52.8208	28.9288	-133.289	-59.8085	57.5673	-145.058	25.1746	62.3634	-142.206	37.1837	93.3509	-105.276	33.4795	76.0465	
167	1.39167	-79.4655	1.41442	97.5707	-74.2451	-31.0524	74.6634	-74.7856	-57.2372	52.7999	-92.4802	-72.224	32.1007	-80.9804	-7.40002	11.8558	-77.6433	-28.4563	-8.46129	-74.4624	-51.7156	-24.6718	-114.532	-15.0458	6.56779	-111.814	-50.6816	4.17128	-111.367	-66.1545	43.256	-133.832	-19.7716	15.6507	-130.424	-54.515	14.3646	-122.897	-63.6495	49.5984	-151.93	-21.3713	28.9521	-146.321	-54.9678	28.7279	-135.631	-63.2983	58.4172	-142.151	23.4803	59.5447	-141.663	35.9162	92.4332	-103.871	31.0768	74.5705	
168	1.4	-81.7057	-0.590898	92.8432	-73.1425	-31.7549	78.4045	-80.4372	-57.5228	51.237	-92.0862	-74.7149	32.7244	-82.3809	-9.16552	12.5497	-80.519	-31.3362	-9.24442	-79.4177	-53.6028	-25.3713	-112.275	-17.1653	5.86973	-112.872	-53.0532	4.07523	-109.529	-67.045	45.5096	-134.916	-26.4758	12.4845	-128.104	-56.0095	15.734	-121.808	-64.7671	46.9175	-153.603	-23.6323	29.0887	-143.353	-57.1505	29.7002	-132.929	-61.6368	56.6525	-140.685	22.0208	61.3961	-142.774	34.7131	90.6847	-103.299	32.911	75.1931	
169	1.40833	-76.9603	-0.972136	95.9936	-75.8977	-31.7873	73.7686	-81.0434	-57.1193	49.1878	-92.7933	-73.0387	34.4983	-82.0798	-4.95684	11.1277	-76.0061	-22.6837	-12.2353	-75.1344	-42.5743	-30.4664	-115.484	-15.9732	6.28421	-109.273	-54.521	4.35975	-107.828	-67.9467	39.8385	-134.686	-22.7761	14.5391	-132.885	-57.5405	14.2689	-122.082	-67.9596	51.2279	-150.479	-24.7044	28.0658	-146.699	-58.0265	30.503	-133.827	-63.0883	58.2555	-138.451	20.8108	61.4798	-139.037	36.7998	91.3343	-105.088	31.9045	73.7683	
170	1.41667	-76.4365	-2.10043	90.8475	-69.6823	-35.0686	74.7929	-75.6792	-58.8934	52.1124	-94.0398	-74.5924	31.1581	-81.3801	-0.981436	8.41139	-75.9175	-11.5693	-14.2718	-73.1764	-26.0355	-39.14	-114.089	-17.2668	3.86911	-107.704	-54.8538	3.15835	-110.607	-66.5749	39.8322	-135.689	-27.6085	11.3789	-128.597	-59.0852	15.3832	-120.365	-68.2984	45.4493	-154.352	-25.1204	28.9059	-143.703	-55.6902	28.5802	-129.8	-60.5999	60.1313	-141.208	19.1851	61.5796	-141.164	34.9996	90.9297	-104.404	31.7481	74.749	
171	1.425	-75.3299	-1.66671	92.7059	-72.7231	-33.5939	74.47	-79.2111	-58.0575	48.688	-91.6941	-72.2078	33.788	-79.5915	2.6353	9.0294	-76.5617	-4.40247	-14.2081	-71.3199	-11.0617	-41.8726	-112.567	-15.7192	4.31974	-109.619	-50.2816	0.281234	-107.05	-67.1594	39.6038	-132.134	-23.9881	12.838	-130.153	-54.9892	11.6821	-119.227	-68.6944	47.7235	-153.021	-24.1231	29.9188	-142.447	-57.8083	29.0018	-130.14	-61.6722	56.4408	-140.043	18.4792	57.8849	-138.646	35.8844	93.2443	-99.6981	30.1353	76.16	
172	1.43333	-75.2684	-1.97209	92.8345	-67.8136	-35.0506	74.6093	-76.8023	-57.6185	47.6055	-89.4219	-75.413	30.356	-80.1731	6.12156	14.4438	-75.6113	1.71727	-13.216	-68.0213	-2.58927	-38.1939	-113.792	-13.8483	6.86702	-108.649	-50.4898	0.720196	-106.561	-66.2367	40.5554	-130.859	-25.198	10.7028	-127.912	-56.806	13.7943	-121.444	-67.7665	46.0275	-154.837	-24.971	29.6393	-142.245	-58.2027	30.8795	-129.217	-61.9864	62.3565	-134.648	20.0388	58.7947	-138.738	34.6141	90.7293	-104.122	30.8344	76.8623	
173	1.44167	-77.8471	-1.06377	91.1604	-72.5955	-32.7934	72.0237	-75.0061	-59.7277	45.8132	-91.4008	-72.3237	30.9774	-83.9087	6.79946	13.3595	-76.2276	2.47563	-17.6859	-76.3922	-2.69429	-41.2849	-114.22	-13.7138	6.60925	-110.569	-52.115	2.17092	-104.552	-65.7541	40.3054	-132.154	-22.2561	14.5827	-132.353	-55.4853	13.1162	-116.247	-67.1417	45.6692	-152.565	-24.5086	28.2174	-141.594	-56.8359	31.0383	-129.658	-61.455	61.5211	-134.298	23.0536	61.4851	-136.343	32.857	89.9377	-98.8715	31.2509	73.9028	
